<?xml version="1.0" standalone="no"?>
<!DOCTYPE svg PUBLIC "-//W3C//DTD SVG 20010904//EN"
 "http://www.w3.org/TR/2001/REC-SVG-20010904/DTD/svg10.dtd">
<svg version="1.0" xmlns="http://www.w3.org/2000/svg"
 width="512.000000pt" height="512.000000pt" viewBox="0 0 512.000000 512.000000"
 preserveAspectRatio="xMidYMid meet">

<g transform="translate(0.000000,512.000000) scale(0.100000,-0.100000)"
fill="#000000" stroke="none">
<path d="M34 4836 c-64 -64 -47 -105 105 -244 465 -422 974 -699 1561 -847 79
-20 299 -65 316 -65 3 0 3 -8 -1 -19 -15 -47 -21 -162 -13 -229 14 -119 52
-199 158 -336 16 -21 30 -42 30 -46 0 -5 -174 -106 -387 -225 -214 -120 -400
-231 -415 -246 l-28 -29 0 -803 c1 -645 3 -807 14 -826 17 -30 1149 -671 1186
-671 38 0 1169 640 1186 671 11 19 13 174 14 825 0 782 0 802 -20 826 -10 14
-197 125 -415 248 -217 122 -395 226 -395 230 0 4 15 26 33 50 70 94 79 107
103 152 13 26 31 74 40 105 17 64 19 216 5 278 -6 22 -9 41 -7 42 1 1 51 12
112 23 662 127 1232 413 1743 873 132 119 161 155 161 201 0 39 -58 96 -97 96
-37 0 -59 -16 -173 -124 -439 -418 -1016 -717 -1610 -836 -253 -50 -231 -51
-298 12 -113 108 -222 151 -382 151 -160 0 -269 -43 -382 -151 l-58 -55 -77
12 c-676 106 -1294 411 -1788 882 -44 41 -91 83 -105 92 -40 27 -78 21 -116
-17z m2662 -987 c70 -27 159 -110 192 -181 64 -137 40 -294 -62 -417 -20 -24
-44 -56 -53 -72 -10 -16 -21 -29 -25 -29 -5 0 -41 19 -81 41 -93 53 -121 53
-213 0 -39 -22 -75 -41 -80 -41 -5 0 -17 13 -27 29 -9 16 -33 48 -53 72 -129
155 -130 358 -2 504 101 115 253 150 404 94z m-236 -1031 l-1 -143 -279 -157
-280 -157 -116 75 c-64 42 -113 79 -109 82 9 10 768 440 778 441 4 1 7 -63 7
-141z m592 -74 c211 -119 387 -220 392 -224 5 -5 -44 -42 -107 -84 l-116 -75
-280 157 -281 157 0 143 c0 78 2 142 5 142 3 0 177 -97 387 -216z m-204 -403
l272 -153 -2 -446 -3 -446 -270 -153 c-148 -83 -277 -152 -285 -152 -8 0 -136
69 -285 153 l-270 153 -3 445 -2 446 277 156 c153 86 283 155 288 154 6 -2
133 -72 283 -157z m-1155 -84 l107 -69 0 -444 0 -445 -115 -74 c-63 -41 -117
-75 -120 -75 -3 0 -5 268 -5 596 0 473 3 594 13 588 6 -4 60 -39 120 -77z
m1864 -1114 c-2 -2 -56 32 -120 74 l-116 78 -1 446 0 447 118 75 117 76 3
-596 c1 -328 1 -598 -1 -600z m-1372 -177 l270 -153 3 -146 3 -145 -278 157
c-153 86 -331 186 -395 221 -65 36 -116 68 -115 72 4 12 211 146 227 147 8 0
137 -69 285 -153z m1147 82 c59 -40 108 -76 108 -79 0 -4 -98 -62 -217 -130
-120 -67 -296 -166 -391 -220 l-173 -98 3 146 3 146 270 153 c149 84 275 153
280 153 6 1 58 -32 117 -71z"/>
</g>
</svg>
