<?xml version="1.0" standalone="no"?>
<!DOCTYPE svg PUBLIC "-//W3C//DTD SVG 20010904//EN"
 "http://www.w3.org/TR/2001/REC-SVG-20010904/DTD/svg10.dtd">
<svg version="1.0" xmlns="http://www.w3.org/2000/svg"
 width="512.000000pt" height="512.000000pt" viewBox="0 0 512.000000 512.000000"
 preserveAspectRatio="xMidYMid meet">

<g transform="translate(0.000000,512.000000) scale(0.100000,-0.100000)"
fill="#000000" stroke="none">
<path d="M1823 4639 l-173 -311 453 -459 c248 -252 454 -459 457 -459 3 0 209
207 457 459 l453 459 -173 311 -172 310 -565 0 -565 0 -172 -310z m1200 -126
l77 -138 -270 -270 -270 -270 -270 270 -270 270 77 138 77 137 386 0 386 0 77
-137z"/>
<path d="M1760 3095 c-425 -97 -712 -528 -625 -940 8 -38 15 -73 15 -77 0 -4
-36 -28 -80 -54 -451 -269 -843 -739 -994 -1194 -58 -174 -67 -236 -73 -457
l-5 -203 2561 0 2561 0 0 149 0 149 -134 314 -134 313 -96 3 -96 3 0 369 0
370 225 0 225 0 0 450 0 450 -1025 0 -1025 0 0 -450 0 -450 650 0 650 0 0
-370 0 -369 -66 -3 -66 -3 -132 -310 -133 -310 -388 -3 c-367 -2 -387 -1 -380
15 22 49 44 155 44 208 2 242 -173 464 -410 520 -52 12 -144 15 -475 15 l-411
0 -79 127 c-43 69 -82 132 -87 139 -6 10 15 11 101 7 478 -25 876 370 849 842
-8 126 -35 225 -95 340 -67 129 -200 262 -327 327 -50 26 -124 56 -165 68 -99
28 -289 36 -380 15z m261 -295 c84 -16 196 -76 260 -139 239 -240 175 -654
-125 -801 -154 -76 -307 -76 -462 0 -144 70 -240 204 -266 372 -52 341 252
631 593 568z m2789 -510 l0 -150 -725 0 -725 0 0 150 0 150 725 0 725 0 0
-150z m-3290 -948 l255 -412 273 0 272 0 0 -230 0 -230 -442 1 -443 0 -320
461 c-176 253 -322 465 -324 470 -9 24 204 210 365 318 70 47 91 57 99 46 6
-7 125 -198 265 -424z m-678 -542 l227 -325 -381 -3 c-210 -1 -382 -1 -384 1
-7 7 37 203 65 285 35 105 104 246 168 346 l44 69 17 -24 c9 -13 119 -170 244
-349z m1973 103 c80 -42 119 -108 119 -203 0 -139 -83 -219 -236 -228 l-78 -5
0 233 0 233 78 -5 c51 -3 91 -12 117 -25z m1906 -268 c38 -87 69 -160 69 -162
0 -2 -112 -3 -250 -3 -137 0 -250 1 -250 3 0 2 25 61 56 133 31 71 62 144 69
162 l14 33 112 -3 112 -3 68 -160z"/>
</g>
</svg>
