<?xml version="1.0" standalone="no"?>
<!DOCTYPE svg PUBLIC "-//W3C//DTD SVG 20010904//EN"
 "http://www.w3.org/TR/2001/REC-SVG-20010904/DTD/svg10.dtd">
<svg version="1.0" xmlns="http://www.w3.org/2000/svg"
 width="2000.000000pt" height="2000.000000pt" viewBox="0 0 2000.000000 2000.000000"
 preserveAspectRatio="xMidYMid meet">

<g transform="translate(0.000000,2000.000000) scale(0.100000,-0.100000)"
fill="#000000" stroke="none">
<path d="M2 10268 c1 -5353 3 -9681 5 -9618 22 1041 58 1327 245 1955 243 818
583 1530 1103 2315 564 850 1244 1602 2035 2249 198 162 465 357 750 546 151
101 293 198 314 217 l39 34 -16 94 c-9 52 -28 156 -42 230 -45 235 -58 378
-58 625 0 249 16 415 59 635 147 745 512 1400 1069 1917 418 388 964 673 1465
765 138 25 554 36 766 19 455 -36 679 -97 1089 -295 322 -156 521 -295 783
-551 343 -332 580 -676 765 -1111 418 -978 369 -2116 -131 -3039 -500 -925
-1387 -1547 -2377 -1669 -191 -24 -343 -28 -595 -17 -258 11 -325 6 -325 -21
0 -10 144 -265 320 -567 l320 -550 730 -1 c1193 0 2267 -14 2470 -31 243 -20
400 -62 620 -168 144 -69 261 -140 372 -227 484 -378 796 -949 864 -1579 29
-275 -25 -699 -130 -1011 -17 -51 -31 -99 -31 -108 0 -37 48 -40 875 -43 440
-2 1099 0 1464 4 l664 8 515 1290 c283 710 516 1291 518 1293 1 2 98 8 216 13
117 5 232 12 256 15 l42 5 0 1540 0 1539 -2537 2 -2538 3 -3 1878 -2 1877
4005 0 4005 0 0 -1880 0 -1880 -880 0 -880 0 0 -1540 c0 -847 1 -1540 3 -1541
1 0 170 -7 375 -14 206 -7 375 -15 376 -17 2 -2 238 -590 524 -1308 l522
-1305 0 9378 0 9377 -10000 0 -10000 0 2 -9732z m12205 9680 c6 -7 138 -258
293 -558 156 -300 455 -877 666 -1282 211 -405 384 -740 384 -743 0 -6 -876
-957 -2354 -2555 -1034 -1118 -1181 -1273 -1202 -1268 -7 2 -101 98 -210 213
-391 416 -3327 3593 -3332 3606 -2 4 174 349 391 766 217 417 517 994 667
1283 150 289 277 531 282 538 8 9 462 12 2208 12 1746 0 2200 -3 2207 -12z"/>
<path d="M8362 18463 c-71 -137 -207 -396 -301 -576 l-172 -328 288 -307 c158
-169 632 -675 1052 -1125 421 -449 767 -817 771 -817 3 0 377 397 831 883 454
485 928 991 1053 1124 l227 242 -164 313 c-90 172 -226 431 -302 576 l-137
262 -1508 0 -1508 0 -130 -247z"/>
<path d="M7375 11014 c-16 -2 -66 -9 -110 -15 -523 -69 -1030 -398 -1351 -875
-80 -119 -200 -364 -243 -493 -140 -423 -153 -847 -39 -1286 157 -607 518
-1059 1053 -1321 470 -229 952 -265 1417 -104 745 256 1229 854 1355 1670 22
143 24 491 5 625 -59 395 -192 722 -419 1027 -180 242 -441 447 -768 604 -249
119 -429 163 -705 169 -91 2 -178 2 -195 -1z"/>
<path d="M13120 8855 l0 -625 2835 0 2835 0 0 625 0 625 -2835 0 -2835 0 0
-625z"/>
<path d="M4783 6651 c-171 -94 -573 -399 -918 -696 -416 -358 -775 -727 -775
-796 0 -27 121 -216 1702 -2651 l810 -1248 777 0 c427 0 1205 -3 1729 -7 l952
-6 0 961 0 962 -1060 0 -1060 0 -24 38 c-13 20 -262 449 -554 952 -886 1532
-1356 2339 -1429 2453 -50 79 -68 83 -150 38z"/>
<path d="M2158 4003 c-158 -268 -192 -329 -309 -563 -210 -420 -366 -816 -464
-1178 -79 -295 -190 -823 -197 -942 l-3 -55 1489 2 c819 1 1491 5 1494 7 2 3
-148 238 -334 523 -1250 1913 -1555 2378 -1563 2381 -5 2 -56 -77 -113 -175z"/>
<path d="M10236 3183 c-3 -4 -6 -442 -6 -975 0 -915 1 -968 18 -968 66 0 414
33 479 45 345 66 585 265 681 565 40 125 47 180 47 370 0 161 -4 197 -24 275
-47 183 -142 340 -274 453 -173 149 -325 198 -682 221 -93 6 -184 13 -202 15
-17 3 -34 2 -37 -1z"/>
<path d="M17044 1991 c-141 -355 -264 -663 -272 -684 -8 -21 -11 -41 -7 -45 9
-9 1931 -9 1940 0 5 5 -517 1333 -529 1345 -2 2 -164 7 -362 13 -197 5 -394
11 -436 13 l-77 4 -257 -646z"/>
</g>
</svg>
